<?xml version="1.0" standalone="no"?>
 <!DOCTYPE svg PUBLIC "-//W3C//DTD SVG 1.1//EN" 
 "http://www.w3.org/Graphics/SVG/1.1/DTD/svg11.dtd"> 
<svg
  xmlns:svg="http://www.w3.org/2000/svg"
  xmlns="http://www.w3.org/2000/svg"
  xmlns:xlink="http://www.w3.org/1999/xlink"
  version="1.1"
  width="297.0022mm" height="210.0072mm" viewBox="0.0000 0.0000 297.0022 210.0072">
<title>SVG Image created as plot.svg date 2026/06/04 03:36:55 </title>
  <desc>Image generated by PCBNEW </desc>
<g style="fill:#000000; fill-opacity:1.0000;stroke:#000000; stroke-opacity:1.0000;
stroke-linecap:round; stroke-linejoin:round;"
 transform="translate(0 0) scale(1 1)">
<path style="fill:#C83434; fill-opacity:1.0000; stroke:none;fill-rule:evenodd;"
d="M 76.5670,74.4052
76.2580,75.3563
74.8314,74.8928
75.1404,73.9417
Z" /> 
<path style="fill:#C83434; fill-opacity:1.0000; stroke:none;fill-rule:evenodd;"
d="M 75.5782,77.4486
75.2692,78.3997
73.8426,77.9361
74.1516,76.9851
Z" /> 
<path style="fill:#C83434; fill-opacity:1.0000; stroke:none;fill-rule:evenodd;"
d="M 80.2384,78.9628
79.9293,79.9139
78.5028,79.4503
78.8118,78.4993
Z" /> 
<path style="fill:#C83434; fill-opacity:1.0000; stroke:none;fill-rule:evenodd;"
d="M 81.2272,75.9194
80.9182,76.8705
79.4916,76.4069
79.8006,75.4559
Z" /> 
<path style="fill:#C83434; fill-opacity:1.0000; stroke:none;fill-rule:evenodd;"
d="M 225.8849,104.6578
225.8849,106.3578
224.1849,106.3578
224.1849,104.6578
Z" /> 
</g>
<g style="fill:#C83434; fill-opacity:1.0000; stroke:none;">
<circle cx="225.0349" cy="102.9678" r="0.8500" /> 
</g>
<g style="fill:#C83434; fill-opacity:1.0000; stroke:none;">
<circle cx="225.0349" cy="100.4278" r="0.8500" /> 
</g>
<g style="fill:#C83434; fill-opacity:1.0000; stroke:none;">
<circle cx="225.0349" cy="97.8878" r="0.8500" /> 
</g>
<g style="fill:#C83434; fill-opacity:1.0000; stroke:none;">
<circle cx="225.0349" cy="95.3478" r="0.8500" /> 
<path style="fill:#C83434; fill-opacity:1.0000; stroke:none;fill-rule:evenodd;"
d="M 208.7362,148.3495
207.7370,149.7249
206.3617,148.7256
207.3609,147.3503
Z" /> 
</g>
<g style="fill:#C83434; fill-opacity:1.0000; stroke:none;">
<circle cx="209.0419" cy="146.4827" r="0.8500" /> 
</g>
<g style="fill:#C83434; fill-opacity:1.0000; stroke:none;">
<circle cx="210.5349" cy="144.4278" r="0.8500" /> 
</g>
<g style="fill:#C83434; fill-opacity:1.0000; stroke:none;">
<circle cx="212.0279" cy="142.3729" r="0.8500" /> 
</g>
<g style="fill:#C83434; fill-opacity:1.0000; stroke:none;">
<circle cx="213.5208" cy="140.3180" r="0.8500" /> 
<path style="fill:#C83434; fill-opacity:1.0000; stroke:none;fill-rule:evenodd;"
d="M 102.2442,86.6632
103.1952,86.9722
102.7317,88.3988
101.7807,88.0898
Z" /> 
<path style="fill:#C83434; fill-opacity:1.0000; stroke:none;fill-rule:evenodd;"
d="M 105.2876,87.6521
106.2386,87.9611
105.7751,89.3877
104.8240,89.0787
Z" /> 
<path style="fill:#C83434; fill-opacity:1.0000; stroke:none;fill-rule:evenodd;"
d="M 106.8018,82.9919
107.7528,83.3009
107.2893,84.7275
106.3382,84.4185
Z" /> 
<path style="fill:#C83434; fill-opacity:1.0000; stroke:none;fill-rule:evenodd;"
d="M 103.7584,82.0030
104.7094,82.3121
104.2459,83.7386
103.2948,83.4296
Z" /> 
<path style="fill:#C83434; fill-opacity:1.0000; stroke:none;fill-rule:evenodd;"
d="M 74.1849,96.1978
74.1849,94.4978
75.8849,94.4978
75.8849,96.1978
Z" /> 
</g>
<g style="fill:#C83434; fill-opacity:1.0000; stroke:none;">
<circle cx="75.0349" cy="97.8878" r="0.8500" /> 
</g>
<g style="fill:#C83434; fill-opacity:1.0000; stroke:none;">
<circle cx="75.0349" cy="100.4278" r="0.8500" /> 
</g>
<g style="fill:#C83434; fill-opacity:1.0000; stroke:none;">
<circle cx="75.0349" cy="102.9678" r="0.8500" /> 
</g>
<g style="fill:#C83434; fill-opacity:1.0000; stroke:none;">
<circle cx="75.0349" cy="105.5078" r="0.8500" /> 
<path style="fill:#C83434; fill-opacity:1.0000; stroke:none;fill-rule:evenodd;"
d="M 130.7952,27.3122
132.4120,26.7869
132.9373,28.4037
131.3205,28.9290
Z" /> 
</g>
<g style="fill:#C83434; fill-opacity:1.0000; stroke:none;">
<circle cx="129.4506" cy="28.6429" r="0.8500" /> 
</g>
<g style="fill:#C83434; fill-opacity:1.0000; stroke:none;">
<circle cx="127.0349" cy="29.4278" r="0.8500" /> 
</g>
<g style="fill:#C83434; fill-opacity:1.0000; stroke:none;">
<circle cx="124.6192" cy="30.2127" r="0.8500" /> 
</g>
<g style="fill:#C83434; fill-opacity:1.0000; stroke:none;">
<circle cx="122.2035" cy="30.9976" r="0.8500" /> 
<path style="fill:#C83434; fill-opacity:1.0000; stroke:none;fill-rule:evenodd;"
d="M 176.7952,169.3122
178.4120,168.7869
178.9373,170.4037
177.3205,170.9290
Z" /> 
</g>
<g style="fill:#C83434; fill-opacity:1.0000; stroke:none;">
<circle cx="175.4506" cy="170.6429" r="0.8500" /> 
</g>
<g style="fill:#C83434; fill-opacity:1.0000; stroke:none;">
<circle cx="173.0349" cy="171.4278" r="0.8500" /> 
</g>
<g style="fill:#C83434; fill-opacity:1.0000; stroke:none;">
<circle cx="170.6192" cy="172.2127" r="0.8500" /> 
</g>
<g style="fill:#C83434; fill-opacity:1.0000; stroke:none;">
<circle cx="168.2035" cy="172.9976" r="0.8500" /> 
<path style="fill:#C83434; fill-opacity:1.0000; stroke:none;fill-rule:evenodd;"
d="M 86.3609,141.5053
85.3617,140.1299
86.7370,139.1307
87.7362,140.5060
Z" /> 
</g>
<g style="fill:#C83434; fill-opacity:1.0000; stroke:none;">
<circle cx="88.0419" cy="142.3729" r="0.8500" /> 
</g>
<g style="fill:#C83434; fill-opacity:1.0000; stroke:none;">
<circle cx="89.5349" cy="144.4278" r="0.8500" /> 
</g>
<g style="fill:#C83434; fill-opacity:1.0000; stroke:none;">
<circle cx="91.0279" cy="146.4827" r="0.8500" /> 
</g>
<g style="fill:#C83434; fill-opacity:1.0000; stroke:none;">
<circle cx="92.5208" cy="148.5376" r="0.8500" /> 
<path style="fill:#C83434; fill-opacity:1.0000; stroke:none;fill-rule:evenodd;"
d="M 148.2194,51.0495
148.2194,52.0495
146.7194,52.0495
146.7194,51.0495
Z" /> 
<path style="fill:#C83434; fill-opacity:1.0000; stroke:none;fill-rule:evenodd;"
d="M 148.2194,54.2495
148.2194,55.2495
146.7194,55.2495
146.7194,54.2495
Z" /> 
<path style="fill:#C83434; fill-opacity:1.0000; stroke:none;fill-rule:evenodd;"
d="M 153.1194,54.2495
153.1194,55.2495
151.6194,55.2495
151.6194,54.2495
Z" /> 
<path style="fill:#C83434; fill-opacity:1.0000; stroke:none;fill-rule:evenodd;"
d="M 153.1194,51.0495
153.1194,52.0495
151.6194,52.0495
151.6194,51.0495
Z" /> 
<path style="fill:#C83434; fill-opacity:1.0000; stroke:none;fill-rule:evenodd;"
d="M 151.8503,149.8061
151.8503,148.8061
153.3503,148.8061
153.3503,149.8061
Z" /> 
<path style="fill:#C83434; fill-opacity:1.0000; stroke:none;fill-rule:evenodd;"
d="M 151.8503,146.6061
151.8503,145.6061
153.3503,145.6061
153.3503,146.6061
Z" /> 
<path style="fill:#C83434; fill-opacity:1.0000; stroke:none;fill-rule:evenodd;"
d="M 146.9503,146.6061
146.9503,145.6061
148.4503,145.6061
148.4503,146.6061
Z" /> 
<path style="fill:#C83434; fill-opacity:1.0000; stroke:none;fill-rule:evenodd;"
d="M 146.9503,149.8061
146.9503,148.8061
148.4503,148.8061
148.4503,149.8061
Z" /> 
<path style="fill:#C83434; fill-opacity:1.0000; stroke:none;fill-rule:evenodd;"
d="M 102.3367,162.0688
103.1457,162.6566
102.2641,163.8701
101.4550,163.2823
Z" /> 
<path style="fill:#C83434; fill-opacity:1.0000; stroke:none;fill-rule:evenodd;"
d="M 104.9256,163.9497
105.7346,164.5375
104.8529,165.7510
104.0439,165.1632
Z" /> 
<path style="fill:#C83434; fill-opacity:1.0000; stroke:none;fill-rule:evenodd;"
d="M 107.8057,159.9855
108.6147,160.5733
107.7331,161.7868
106.9240,161.1990
Z" /> 
<path style="fill:#C83434; fill-opacity:1.0000; stroke:none;fill-rule:evenodd;"
d="M 105.2169,158.1046
106.0259,158.6924
105.1442,159.9059
104.3352,159.3181
Z" /> 
<path style="fill:#C83434; fill-opacity:1.0000; stroke:none;fill-rule:evenodd;"
d="M 106.2346,35.8181
105.4256,36.4059
104.5439,35.1924
105.3529,34.6046
Z" /> 
<path style="fill:#C83434; fill-opacity:1.0000; stroke:none;fill-rule:evenodd;"
d="M 103.6457,37.6990
102.8367,38.2868
101.9550,37.0733
102.7641,36.4855
Z" /> 
<path style="fill:#C83434; fill-opacity:1.0000; stroke:none;fill-rule:evenodd;"
d="M 106.5259,41.6632
105.7169,42.2510
104.8352,41.0375
105.6442,40.4497
Z" /> 
<path style="fill:#C83434; fill-opacity:1.0000; stroke:none;fill-rule:evenodd;"
d="M 109.1147,39.7823
108.3057,40.3701
107.4240,39.1565
108.2331,38.5688
Z" /> 
<path style="fill:#C83434; fill-opacity:1.0000; stroke:none;fill-rule:evenodd;"
d="M 197.8256,114.1924
196.8745,113.8833
197.3381,112.4567
198.2891,112.7658
Z" /> 
<path style="fill:#C83434; fill-opacity:1.0000; stroke:none;fill-rule:evenodd;"
d="M 194.7822,113.2035
193.8311,112.8945
194.2947,111.4679
195.2457,111.7769
Z" /> 
<path style="fill:#C83434; fill-opacity:1.0000; stroke:none;fill-rule:evenodd;"
d="M 193.2680,117.8637
192.3170,117.5547
192.7805,116.1281
193.7315,116.4371
Z" /> 
<path style="fill:#C83434; fill-opacity:1.0000; stroke:none;fill-rule:evenodd;"
d="M 196.3114,118.8525
195.3603,118.5435
195.8239,117.1169
196.7749,117.4259
Z" /> 
<path style="fill:#C83434; fill-opacity:1.0000; stroke:none;fill-rule:evenodd;"
d="M 75.5670,122.0530
75.8760,123.0041
74.4494,123.4676
74.1404,122.5165
Z" /> 
<path style="fill:#C83434; fill-opacity:1.0000; stroke:none;fill-rule:evenodd;"
d="M 76.5559,125.0964
76.8649,126.0474
75.4383,126.5110
75.1293,125.5599
Z" /> 
<path style="fill:#C83434; fill-opacity:1.0000; stroke:none;fill-rule:evenodd;"
d="M 81.2160,123.5822
81.5251,124.5333
80.0985,124.9968
79.7895,124.0457
Z" /> 
<path style="fill:#C83434; fill-opacity:1.0000; stroke:none;fill-rule:evenodd;"
d="M 80.2272,120.5388
80.5362,121.4899
79.1096,121.9534
78.8006,121.0023
Z" /> 
<path style="fill:#C83434; fill-opacity:1.0000; stroke:none;fill-rule:evenodd;"
d="M 193.8352,164.5375
194.6442,163.9497
195.5259,165.1632
194.7169,165.7510
Z" /> 
<path style="fill:#C83434; fill-opacity:1.0000; stroke:none;fill-rule:evenodd;"
d="M 196.4240,162.6565
197.2331,162.0688
198.1147,163.2823
197.3057,163.8701
Z" /> 
<path style="fill:#C83434; fill-opacity:1.0000; stroke:none;fill-rule:evenodd;"
d="M 193.5439,158.6924
194.3529,158.1046
195.2346,159.3181
194.4256,159.9059
Z" /> 
<path style="fill:#C83434; fill-opacity:1.0000; stroke:none;fill-rule:evenodd;"
d="M 190.9550,160.5733
191.7641,159.9855
192.6457,161.1990
191.8367,161.7868
Z" /> 
<path style="fill:#C83434; fill-opacity:1.0000; stroke:none;fill-rule:evenodd;"
d="M 213.7089,59.3503
214.7081,60.7256
213.3328,61.7249
212.3336,60.3495
Z" /> 
</g>
<g style="fill:#C83434; fill-opacity:1.0000; stroke:none;">
<circle cx="212.0279" cy="58.4827" r="0.8500" /> 
</g>
<g style="fill:#C83434; fill-opacity:1.0000; stroke:none;">
<circle cx="210.5349" cy="56.4278" r="0.8500" /> 
</g>
<g style="fill:#C83434; fill-opacity:1.0000; stroke:none;">
<circle cx="209.0419" cy="54.3729" r="0.8500" /> 
</g>
<g style="fill:#C83434; fill-opacity:1.0000; stroke:none;">
<circle cx="207.5489" cy="52.3180" r="0.8500" /> 
<path style="fill:#C83434; fill-opacity:1.0000; stroke:none;fill-rule:evenodd;"
d="M 119.7291,61.4113
120.3169,62.2203
119.1034,63.1020
118.5156,62.2930
Z" /> 
<path style="fill:#C83434; fill-opacity:1.0000; stroke:none;fill-rule:evenodd;"
d="M 121.6100,64.0001
122.1978,64.8092
120.9843,65.6908
120.3965,64.8818
Z" /> 
<path style="fill:#C83434; fill-opacity:1.0000; stroke:none;fill-rule:evenodd;"
d="M 125.5742,61.1200
126.1620,61.9290
124.9485,62.8107
124.3607,62.0017
Z" /> 
<path style="fill:#C83434; fill-opacity:1.0000; stroke:none;fill-rule:evenodd;"
d="M 123.6933,58.5311
124.2811,59.3402
123.0676,60.2218
122.4798,59.4128
Z" /> 
<path style="fill:#C83434; fill-opacity:1.0000; stroke:none;fill-rule:evenodd;"
d="M 147.9349,178.1278
148.9349,178.1278
148.9349,179.6278
147.9349,179.6278
Z" /> 
<path style="fill:#C83434; fill-opacity:1.0000; stroke:none;fill-rule:evenodd;"
d="M 151.1349,178.1278
152.1349,178.1278
152.1349,179.6278
151.1349,179.6278
Z" /> 
<path style="fill:#C83434; fill-opacity:1.0000; stroke:none;fill-rule:evenodd;"
d="M 151.1349,173.2278
152.1349,173.2278
152.1349,174.7278
151.1349,174.7278
Z" /> 
<path style="fill:#C83434; fill-opacity:1.0000; stroke:none;fill-rule:evenodd;"
d="M 147.9349,173.2278
148.9349,173.2278
148.9349,174.7278
147.9349,174.7278
Z" /> 
<path style="fill:#C83434; fill-opacity:1.0000; stroke:none;fill-rule:evenodd;"
d="M 197.2331,38.7868
196.4241,38.1990
197.3057,36.9855
198.1147,37.5733
Z" /> 
<path style="fill:#C83434; fill-opacity:1.0000; stroke:none;fill-rule:evenodd;"
d="M 194.6442,36.9059
193.8352,36.3181
194.7169,35.1046
195.5259,35.6924
Z" /> 
<path style="fill:#C83434; fill-opacity:1.0000; stroke:none;fill-rule:evenodd;"
d="M 191.7641,40.8701
190.9550,40.2823
191.8367,39.0688
192.6457,39.6566
Z" /> 
<path style="fill:#C83434; fill-opacity:1.0000; stroke:none;fill-rule:evenodd;"
d="M 194.3529,42.7510
193.5439,42.1632
194.4256,40.9497
195.2346,41.5375
Z" /> 
<path style="fill:#C83434; fill-opacity:1.0000; stroke:none;fill-rule:evenodd;"
d="M 177.3205,29.9265
178.9373,30.4519
178.4120,32.0687
176.7952,31.5433
Z" /> 
</g>
<g style="fill:#C83434; fill-opacity:1.0000; stroke:none;">
<circle cx="175.4506" cy="30.2127" r="0.8500" /> 
</g>
<g style="fill:#C83434; fill-opacity:1.0000; stroke:none;">
<circle cx="173.0349" cy="29.4278" r="0.8500" /> 
</g>
<g style="fill:#C83434; fill-opacity:1.0000; stroke:none;">
<circle cx="170.6192" cy="28.6429" r="0.8500" /> 
</g>
<g style="fill:#C83434; fill-opacity:1.0000; stroke:none;">
<circle cx="168.2035" cy="27.8580" r="0.8500" /> 
<path style="fill:#C83434; fill-opacity:1.0000; stroke:none;fill-rule:evenodd;"
d="M 223.5028,126.4503
223.8118,125.4993
225.2384,125.9628
224.9293,126.9139
Z" /> 
<path style="fill:#C83434; fill-opacity:1.0000; stroke:none;fill-rule:evenodd;"
d="M 224.4916,123.4070
224.8006,122.4559
226.2272,122.9194
225.9182,123.8705
Z" /> 
<path style="fill:#C83434; fill-opacity:1.0000; stroke:none;fill-rule:evenodd;"
d="M 219.8314,121.8928
220.1404,120.9417
221.5670,121.4052
221.2580,122.3563
Z" /> 
<path style="fill:#C83434; fill-opacity:1.0000; stroke:none;fill-rule:evenodd;"
d="M 218.8426,124.9362
219.1516,123.9851
220.5782,124.4486
220.2692,125.3997
Z" /> 
<path style="fill:#C83434; fill-opacity:1.0000; stroke:none;fill-rule:evenodd;"
d="M 108.0456,121.5878
107.9793,121.5162
107.9456,121.4246
107.9494,121.3272
107.9903,121.2386
108.3870,120.6925
108.4586,120.6263
108.5502,120.5925
108.6476,120.5964
108.7362,120.6372
109.5048,121.1956
109.5710,121.2672
109.6048,121.3587
109.6009,121.4562
109.5601,121.5448
109.1633,122.0909
109.0917,122.1571
109.0002,122.1909
108.9027,122.1870
108.8141,122.1462
Z" /> 
<path style="fill:#C83434; fill-opacity:1.0000; stroke:none;fill-rule:evenodd;"
d="M 109.2652,119.9091
109.1990,119.8374
109.1652,119.7459
109.1691,119.6485
109.2099,119.5599
109.6067,119.0138
109.6783,118.9476
109.7698,118.9138
109.8673,118.9176
109.9559,118.9585
110.7244,119.5169
110.7906,119.5885
110.8244,119.6800
110.8206,119.7775
110.7797,119.8661
110.3830,120.4122
110.3114,120.4784
110.2198,120.5121
110.1224,120.5083
110.0338,120.4675
Z" /> 
<path style="fill:#C83434; fill-opacity:1.0000; stroke:none;fill-rule:evenodd;"
d="M 224.8006,77.8997
224.4916,76.9486
225.9182,76.4851
226.2272,77.4361
Z" /> 
<path style="fill:#C83434; fill-opacity:1.0000; stroke:none;fill-rule:evenodd;"
d="M 223.8118,74.8563
223.5028,73.9052
224.9293,73.4417
225.2384,74.3928
Z" /> 
<path style="fill:#C83434; fill-opacity:1.0000; stroke:none;fill-rule:evenodd;"
d="M 219.1516,76.3705
218.8426,75.4194
220.2692,74.9559
220.5782,75.9069
Z" /> 
<path style="fill:#C83434; fill-opacity:1.0000; stroke:none;fill-rule:evenodd;"
d="M 220.1404,79.4139
219.8314,78.4628
221.2580,77.9993
221.5670,78.9503
Z" /> 
<path style="fill:#C83434; fill-opacity:1.0000; stroke:none;fill-rule:evenodd;"
d="M 196.6820,83.4837
195.7309,83.7928
195.2674,82.3662
196.2184,82.0572
Z" /> 
<path style="fill:#C83434; fill-opacity:1.0000; stroke:none;fill-rule:evenodd;"
d="M 193.6386,84.4726
192.6875,84.7816
192.2240,83.3550
193.1751,83.0460
Z" /> 
<path style="fill:#C83434; fill-opacity:1.0000; stroke:none;fill-rule:evenodd;"
d="M 195.1528,89.1328
194.2017,89.4418
193.7382,88.0152
194.6892,87.7062
Z" /> 
<path style="fill:#C83434; fill-opacity:1.0000; stroke:none;fill-rule:evenodd;"
d="M 198.1962,88.1439
197.2451,88.4529
196.7816,87.0264
197.7326,86.7173
Z" /> 
<path style="fill:#C83434; fill-opacity:1.0000; stroke:none;fill-rule:evenodd;"
d="M 152.1349,22.2278
151.1349,22.2278
151.1349,20.7278
152.1349,20.7278
Z" /> 
<path style="fill:#C83434; fill-opacity:1.0000; stroke:none;fill-rule:evenodd;"
d="M 148.9349,22.2278
147.9349,22.2278
147.9349,20.7278
148.9349,20.7278
Z" /> 
<path style="fill:#C83434; fill-opacity:1.0000; stroke:none;fill-rule:evenodd;"
d="M 148.9349,27.1278
147.9349,27.1278
147.9349,25.6278
148.9349,25.6278
Z" /> 
<path style="fill:#C83434; fill-opacity:1.0000; stroke:none;fill-rule:evenodd;"
d="M 152.1349,27.1278
151.1349,27.1278
151.1349,25.6278
152.1349,25.6278
Z" /> 
<path style="fill:#C83434; fill-opacity:1.0000; stroke:none;fill-rule:evenodd;"
d="M 180.3407,139.4443
179.7529,138.6353
180.9664,137.7536
181.5542,138.5626
Z" /> 
<path style="fill:#C83434; fill-opacity:1.0000; stroke:none;fill-rule:evenodd;"
d="M 178.4597,136.8554
177.8720,136.0464
179.0855,135.1647
179.6733,135.9737
Z" /> 
<path style="fill:#C83434; fill-opacity:1.0000; stroke:none;fill-rule:evenodd;"
d="M 174.4956,139.7356
173.9078,138.9266
175.1213,138.0449
175.7091,138.8539
Z" /> 
<path style="fill:#C83434; fill-opacity:1.0000; stroke:none;fill-rule:evenodd;"
d="M 176.3765,142.3244
175.7887,141.5154
177.0022,140.6337
177.5900,141.4427
Z" /> 
<path style="fill:#C83434; fill-opacity:1.0000; stroke:none;fill-rule:evenodd;"
d="M 131.3205,171.9265
132.9373,172.4519
132.4120,174.0687
130.7952,173.5433
Z" /> 
</g>
<g style="fill:#C83434; fill-opacity:1.0000; stroke:none;">
<circle cx="129.4506" cy="172.2127" r="0.8500" /> 
</g>
<g style="fill:#C83434; fill-opacity:1.0000; stroke:none;">
<circle cx="127.0349" cy="171.4278" r="0.8500" /> 
</g>
<g style="fill:#C83434; fill-opacity:1.0000; stroke:none;">
<circle cx="124.6192" cy="170.6429" r="0.8500" /> 
</g>
<g style="fill:#C83434; fill-opacity:1.0000; stroke:none;">
<circle cx="122.2035" cy="169.8580" r="0.8500" /> 
<path style="fill:#C83434; fill-opacity:1.0000; stroke:none;fill-rule:evenodd;"
d="M 177.8571,59.2029
177.2693,60.0119
176.0558,59.1302
176.6436,58.3212
Z" /> 
<path style="fill:#C83434; fill-opacity:1.0000; stroke:none;fill-rule:evenodd;"
d="M 175.9762,61.7917
175.3884,62.6007
174.1749,61.7191
174.7627,60.9101
Z" /> 
<path style="fill:#C83434; fill-opacity:1.0000; stroke:none;fill-rule:evenodd;"
d="M 179.9404,64.6719
179.3526,65.4809
178.1391,64.5992
178.7269,63.7902
Z" /> 
<path style="fill:#C83434; fill-opacity:1.0000; stroke:none;fill-rule:evenodd;"
d="M 181.8213,62.0830
181.2335,62.8920
180.0200,62.0104
180.6078,61.2013
Z" /> 
<path style="fill:#C83434; fill-opacity:1.0000; stroke:none;fill-rule:evenodd;"
d="M 103.3878,117.3718
104.3389,117.0628
104.8024,118.4894
103.8513,118.7984
Z" /> 
<path style="fill:#C83434; fill-opacity:1.0000; stroke:none;fill-rule:evenodd;"
d="M 106.4312,116.3830
107.3822,116.0739
107.8458,117.5005
106.8947,117.8095
Z" /> 
<path style="fill:#C83434; fill-opacity:1.0000; stroke:none;fill-rule:evenodd;"
d="M 104.9170,111.7228
105.8681,111.4138
106.3316,112.8404
105.3805,113.1494
Z" /> 
<path style="fill:#C83434; fill-opacity:1.0000; stroke:none;fill-rule:evenodd;"
d="M 101.8736,112.7116
102.8247,112.4026
103.2882,113.8292
102.3372,114.1382
Z" /> 
<path style="fill:#C83434; fill-opacity:1.0000; stroke:none;fill-rule:evenodd;"
d="M 91.3336,52.5060
92.3328,51.1307
93.7081,52.1299
92.7089,53.5053
Z" /> 
</g>
<g style="fill:#C83434; fill-opacity:1.0000; stroke:none;">
<circle cx="91.0279" cy="54.3729" r="0.8500" /> 
</g>
<g style="fill:#C83434; fill-opacity:1.0000; stroke:none;">
<circle cx="89.5349" cy="56.4278" r="0.8500" /> 
</g>
<g style="fill:#C83434; fill-opacity:1.0000; stroke:none;">
<circle cx="88.0419" cy="58.4827" r="0.8500" /> 
</g>
<g style="fill:#C83434; fill-opacity:1.0000; stroke:none;">
<circle cx="86.5489" cy="60.5376" r="0.8500" /> 
<path style="fill:#C83434; fill-opacity:1.0000; stroke:none;fill-rule:evenodd;"
d="M 122.2127,141.6527
122.8005,140.8437
124.0140,141.7254
123.4262,142.5344
Z" /> 
<path style="fill:#C83434; fill-opacity:1.0000; stroke:none;fill-rule:evenodd;"
d="M 124.0936,139.0638
124.6814,138.2548
125.8949,139.1365
125.3071,139.9455
Z" /> 
<path style="fill:#C83434; fill-opacity:1.0000; stroke:none;fill-rule:evenodd;"
d="M 120.1294,136.1837
120.7172,135.3747
121.9307,136.2563
121.3429,137.0654
Z" /> 
<path style="fill:#C83434; fill-opacity:1.0000; stroke:none;fill-rule:evenodd;"
d="M 118.2485,138.7725
118.8363,137.9635
120.0498,138.8452
119.4620,139.6542
Z" /> 
</g>
<g style="fill:#C83434; fill-opacity:1.0000; stroke:none;">
<circle cx="128.7782" cy="167.2941" r="0.3000" /> 
</g>
<g style="fill:#C83434; fill-opacity:1.0000; stroke:none;">
<circle cx="128.2883" cy="32.9675" r="0.3000" /> 
</g>
<g style="fill:#C83434; fill-opacity:1.0000; stroke:none;">
<circle cx="80.0051" cy="101.1155" r="0.8090" /> 
</g>
<g style="fill:#C83434; fill-opacity:1.0000; stroke:none;">
<circle cx="207.1189" cy="141.3698" r="0.3000" /> 
</g>
<g style="fill:#C83434; fill-opacity:1.0000; stroke:none;">
<circle cx="153.4328" cy="173.5976" r="0.3000" /> 
</g>
<g style="fill:#C83434; fill-opacity:1.0000; stroke:none;">
<circle cx="190.7581" cy="39.5043" r="0.3000" /> 
</g>
<g style="fill:#C83434; fill-opacity:1.0000; stroke:none;">
<circle cx="104.7223" cy="42.3874" r="0.3000" /> 
</g>
<g style="fill:#C83434; fill-opacity:1.0000; stroke:none;">
<circle cx="81.3165" cy="125.4665" r="0.3000" /> 
</g>
<g style="fill:#C83434; fill-opacity:1.0000; stroke:none;">
<circle cx="220.8398" cy="120.5986" r="0.3000" /> 
</g>
<g style="fill:#C83434; fill-opacity:1.0000; stroke:none;">
<circle cx="206.5493" cy="58.7717" r="0.3000" /> 
</g>
<g style="fill:none; 
stroke:#C83434; stroke-width:1.6180; stroke-opacity:1; 
stroke-linecap:round; stroke-linejoin:round;">
<path d="M76.3896 98.5780
L77.1045 100.7783
" />
<path d="M193.0243 116.9959
L195.2420 115.8659
" />
<path d="M173.7771 169.4270
L171.3083 169.8181
" />
<path d="M190.7581 39.5043
L172.5649 31.3854
" />
<path d="M172.5649 31.3854
L174.8630 31.0214
" />
<path d="M129.5318 29.1555
L129.4506 28.6429
" />
<path d="M219.7104 75.6632
L179.0397 64.6355
" />
<path d="M145.1536 61.9653
L125.2614 61.9653
" />
<path d="M174.8084 138.8902
L176.3584 129.1044
" />
<path d="M147.7003 146.1061
L149.4603 147.8661
" />
<path d="M131.7553 134.5213
L147.7003 146.1061
" />
<path d="M91.4152 143.4948
L91.7344 145.5102
" />
<path d="M129.4506 171.0106
L129.4506 172.2127
" />
<path d="M153.4328 173.5976
L171.3083 169.8181
" />
<path d="M151.6349 173.9778
L153.4328 173.5976
" />
<path d="M150.0349 100.4278
L125.2614 61.9653
" />
<path d="M206.5493 58.7717
L180.1114 60.1663
" />
<path d="M92.1459 55.9984
L90.5868 58.1444
" />
<path d="M75.0349 97.8878
L76.3896 98.5780
" />
<path d="M194.4455 88.5740
L185.3045 83.9164
" />
<path d="M152.3694 54.7495
L145.1536 61.9653
" />
<path d="M194.3892 159.0052
L193.0243 116.9959
" />
<path d="M124.6192 30.2127
L126.2927 31.4285
" />
<path d="M121.1947 59.3624
L122.8030 61.5760
" />
<path d="M174.8630 31.0214
L175.4506 30.2127
" />
<path d="M105.6243 112.2816
L108.0633 111.6306
" />
<path d="M81.3165 125.4665
L91.4152 143.4948
" />
<path d="M104.4943 114.4993
L101.9082 115.3396
" />
<path d="M107.7694 160.8861
L147.7003 146.1061
" />
<path d="M193.0243 116.9959
L150.0349 100.4278
" />
<path d="M128.7782 167.2941
L149.4603 150.6410
" />
<path d="M191.8004 39.9694
L190.7581 39.5043
" />
<path d="M175.4506 170.6429
L173.7771 169.4270
" />
<path d="M108.0633 111.6306
L110.1298 119.5273
" />
<path d="M185.3045 83.9164
L179.0397 64.6355
" />
<path d="M107.0455 83.8597
L111.8166 93.2235
" />
<path d="M208.0694 145.7761
L207.9239 144.8571
" />
<path d="M171.3083 169.8181
L170.4312 171.0254
" />
<path d="M90.5868 58.1444
L88.1151 58.5358
" />
<path d="M124.6192 170.6429
L125.6943 169.5678
" />
<path d="M225.0349 102.9678
L223.3614 101.7519
" />
<path d="M209.0419 146.4827
L208.0694 145.7761
" />
<path d="M77.1045 100.7783
L76.1781 102.5963
" />
<path d="M128.2883 32.9675
L121.1947 59.3624
" />
<path d="M91.7344 145.5102
L91.0279 146.4827
" />
<path d="M223.3614 101.7519
L222.9704 99.2832
" />
<path d="M149.4603 147.8661
L149.4603 150.6410
" />
<path d="M125.6943 169.5678
L128.0078 169.5678
" />
<path d="M108.0633 111.6306
L150.0349 100.4278
" />
<path d="M211.9547 142.3197
L212.0279 142.3729
" />
<path d="M211.9547 58.5358
L209.4830 58.1444
" />
<path d="M75.0349 97.8878
L80.0051 101.1155
" />
<path d="M124.6192 170.6429
L128.7782 167.2941
" />
<path d="M89.5436 142.1350
L91.4152 143.4948
" />
<path d="M179.0397 64.6355
L150.0349 100.4278
" />
<path d="M111.8166 93.2235
L105.6243 112.2816
" />
<path d="M209.4830 142.7112
L211.9547 142.3197
" />
<path d="M207.9239 144.8571
L209.4830 142.7112
" />
<path d="M170.6192 28.6429
L170.8570 30.1446
" />
<path d="M212.0279 58.4827
L211.9547 58.5358
" />
<path d="M220.6992 121.6490
L220.8398 120.5986
" />
<path d="M128.0868 31.1444
L129.5318 29.1555
" />
<path d="M79.3706 79.2066
L105.6243 112.2816
" />
<path d="M92.0004 55.0794
L92.1459 55.9984
" />
<path d="M129.4506 28.6429
L128.2883 32.9675
" />
<path d="M105.6243 112.2816
L104.4943 114.4993
" />
<path d="M80.6573 124.2895
L81.3165 125.4665
" />
<path d="M223.8476 98.0758
L225.0349 97.8878
" />
<path d="M195.2420 115.8659
L197.8448 116.7116
" />
<path d="M91.0279 54.3729
L92.0004 55.0794
" />
<path d="M125.2614 61.9653
L122.8030 61.5760
" />
<path d="M179.0397 64.6356
L178.6504 62.1772
" />
<path d="M88.0419 142.3729
L89.5436 142.1350
" />
<path d="M105.6805 41.3503
L104.7223 42.3874
" />
<path d="M176.3584 129.1044
L193.0243 116.9959
" />
<path d="M147.7003 146.1061
L150.0349 100.4278
" />
<path d="M104.7223 42.3874
L92.1459 55.9984
" />
<path d="M209.0419 146.4827
L207.1189 141.3698
" />
<path d="M170.8570 30.1446
L172.5649 31.3854
" />
<path d="M212.0279 58.4827
L206.5493 58.7717
" />
<path d="M178.6504 62.1772
L180.1114 60.1663
" />
<path d="M148.4349 26.3778
L125.2614 61.9653
" />
<path d="M170.4312 171.0254
L170.6192 172.2127
" />
<path d="M222.9704 99.2832
L223.8476 98.0758
" />
<path d="M209.4830 58.1444
L207.9239 55.9984
" />
<path d="M76.1781 102.5963
L75.0349 102.9678
" />
<path d="M80.0051 101.1155
L101.9082 115.3396
" />
<path d="M126.2927 31.4285
L128.0868 31.1444
" />
<path d="M121.0301 136.2200
L131.7553 134.5213
" />
<path d="M207.9239 55.9984
L208.0694 55.0794
" />
<path d="M208.0694 55.0794
L209.0419 54.3729
" />
<path d="M220.8398 120.5986
L223.3614 101.7519
" />
<path d="M207.1189 141.3698
L197.8448 116.7116
" />
<path d="M88.1151 58.5358
L88.0419 58.4827
" />
<path d="M128.0078 169.5678
L129.4506 171.0106
" />
</g>
<g style="fill:none; 
stroke:#C83434; stroke-width:0.2000; stroke-opacity:1; 
stroke-linecap:round; stroke-linejoin:round;">
<path d="M74.0876 103.7769
L74.9371 104.2098
" />
<path d="M74.9936 104.1914
L100.2311 117.0506
" />
<path d="M74.9371 104.2098
L74.9936 104.1914
" />
<path d="M100.2311 117.0506
L104.5793 115.6378
" />
<path d="M75.0349 100.4278
L73.7920 102.8672
" />
<path d="M104.5793 115.6378
L107.1385 116.9417
" />
<path d="M73.7920 102.8672
L74.0876 103.7769
" />
<path d="M74.7104 77.6924
L102.5809 113.2704
" />
<path d="M105.5313 88.5199
L104.1327 89.2325
" />
<path d="M104.1327 89.2325
L83.6231 82.5686
" />
<path d="M83.6231 82.5686
L80.3594 76.1632
" />
<path d="M107.3215 42.8970
L107.4062 42.3627
" />
<path d="M120.6417 62.1947
L120.7671 61.4032
" />
<path d="M104.4464 37.6469
L102.8004 37.3861
" />
<path d="M104.0021 82.8708
L115.8921 76.8126
" />
<path d="M120.7671 61.4032
L107.3215 42.8970
" />
<path d="M106.7983 41.5261
L106.7715 40.8471
" />
<path d="M106.7715 40.8471
L104.4464 37.6469
" />
<path d="M115.8921 76.8126
L120.6417 62.1947
" />
<path d="M107.4062 42.3627
L106.7983 41.5261
" />
<path d="M107.7425 42.7959
L121.7384 62.0596
" />
<path d="M121.7384 62.0596
L121.2972 64.8455
" />
<path d="M108.2694 39.4694
L107.7425 42.7959
" />
<path d="M148.4349 21.4778
L123.3804 59.3765
" />
<path d="M146.3594 31.6532
L151.6349 26.3778
" />
<path d="M147.4694 54.7495
L146.3594 53.6395
" />
<path d="M146.3594 53.6395
L146.3594 31.6532
" />
<path d="M192.9417 39.7626
L194.7110 37.3275
" />
<path d="M192.9417 40.4843
L192.9417 39.7626
" />
<path d="M179.6506 58.0563
L191.9454 41.1339
" />
<path d="M152.3694 51.5495
L161.1329 60.3129
" />
<path d="M191.9454 41.1339
L192.2921 41.1339
" />
<path d="M194.5336 36.2075
L194.6805 36.0052
" />
<path d="M179.5824 58.0671
L179.6506 58.0563
" />
<path d="M192.2921 41.1339
L192.9417 40.4843
" />
<path d="M179.4299 58.2770
L179.5824 58.0671
" />
<path d="M194.7110 37.3275
L194.5336 36.2075
" />
<path d="M161.1329 60.3129
L177.3940 60.3129
" />
<path d="M177.3940 60.3129
L179.4299 58.2770
" />
<path d="M194.2423 42.0526
L194.3892 41.8503
" />
<path d="M191.5965 42.4716
L194.2423 42.0526
" />
<path d="M177.9124 61.3061
L191.5965 42.4716
" />
<path d="M175.0755 61.7554
L177.9124 61.3061
" />
<path d="M224.3705 74.1490
L180.9206 62.0467
" />
<path d="M192.9313 83.9138
L193.6440 82.5151
" />
<path d="M214.7285 75.6643
L220.6992 78.7066
" />
<path d="M193.6440 82.5151
L214.7285 75.6643
" />
<path d="M196.4459 114.2534
L191.5610 99.2192
" />
<path d="M225.3594 123.1632
L225.1216 123.0859
" />
<path d="M218.9148 122.2500
L218.4899 121.4159
" />
<path d="M218.4899 121.4159
L196.4459 114.2534
" />
<path d="M191.5610 99.2192
L197.4889 87.5851
" />
<path d="M225.1216 123.0859
L223.7066 123.8069
" />
<path d="M223.7066 123.8069
L218.9148 122.2500
" />
<path d="M195.5878 114.3952
L194.5384 112.3357
" />
<path d="M218.2087 121.7451
L195.5878 114.3952
" />
<path d="M219.7104 124.6924
L218.2087 121.7451
" />
<path d="M197.2694 162.9694
L196.0676 117.9847
" />
<path d="M180.3231 136.2556
L192.9490 153.6338
" />
<path d="M192.9490 153.6338
L191.8004 160.8862
" />
<path d="M178.7726 136.0101
L180.3231 136.2556
" />
<path d="M151.5000 171.4784
L151.5000 148.6937
" />
<path d="M150.4538 172.5246
L151.5000 171.4784
" />
<path d="M150.4538 177.6967
L150.4538 172.5246
" />
<path d="M151.5000 148.6937
L151.5189 148.6748
" />
<path d="M151.5189 148.6748
L164.1554 139.4939
" />
<path d="M164.1554 139.4939
L176.6893 141.4791
" />
<path d="M151.6349 178.8778
L150.4538 177.6967
" />
<path d="M148.4349 173.9778
L151.0990 171.3137
" />
<path d="M151.0990 147.6074
L152.6003 146.1061
" />
<path d="M151.0990 171.3137
L151.0990 147.6074
" />
<path d="M104.8892 164.8503
L147.7003 149.3061
" />
<path d="M112.7787 157.8018
L105.1805 159.0052
" />
<path d="M124.9942 139.1002
L125.2398 140.6506
" />
<path d="M125.2398 140.6506
L112.7787 157.8018
" />
<path d="M100.7382 117.7590
L104.2079 116.6316
" />
<path d="M117.1163 125.9741
L104.4149 116.7460
" />
<path d="M76.7537 124.3188
L99.2603 117.0060
" />
<path d="M119.1491 138.8089
L117.1163 125.9741
" />
<path d="M99.2603 117.0060
L100.7382 117.7590
" />
<path d="M75.9971 125.8037
L76.7537 124.3188
" />
<path d="M104.2079 116.6316
L104.5762 116.8193
" />
</g>
<g style="fill:none; 
stroke:#C83434; stroke-width:1.6180; stroke-opacity:1; 
stroke-linecap:round; stroke-linejoin:round;">
<path d="M115.4057 74.5999
L119.4163 62.2566
" />
<path d="M102.4880 87.5310
L101.5185 85.6283
" />
<path d="M151.6349 21.4778
L168.2035 27.8580
" />
<path d="M123.1133 141.6890
L121.0042 142.0231
" />
<path d="M148.4349 178.8778
L131.8663 172.9976
" />
<path d="M116.7339 138.9206
L114.6207 125.5779
" />
<path d="M193.3406 100.2714
L197.5818 113.3246
" />
<path d="M180.6535 138.5989
L180.3195 140.7081
" />
<path d="M224.3706 126.2066
L213.5208 140.3180
" />
<path d="M147.4694 51.5495
L148.9794 50.0395
" />
<path d="M180.3195 140.7081
L176.4087 143.5494
" />
<path d="M121.0042 142.0231
L116.7339 138.9206
" />
<path d="M105.3892 35.5052
L122.2035 30.9976
" />
<path d="M199.3600 88.4576
L193.3406 100.2714
" />
<path d="M194.6805 164.8503
L152.6110 149.3075
" />
<path d="M152.6091 149.2997
L152.6091 149.3061
" />
<path d="M163.1539 59.1665
L176.9564 59.1665
" />
<path d="M92.8861 149.0766
L92.5208 148.5376
" />
<path d="M104.0951 117.9306
L102.3004 162.9694
" />
<path d="M177.8663 169.8580
L194.6805 164.8503
" />
<path d="M225.3594 77.1924
L225.0349 95.3478
" />
<path d="M197.5818 113.3245
L225.3594 77.1924
" />
<path d="M197.8774 83.8944
L199.3600 88.4576
" />
<path d="M154.0269 50.0395
L163.1539 59.1665
" />
<path d="M195.9747 82.9250
L197.8774 83.8944
" />
<path d="M163.3668 141.4838
L152.6091 149.2997
" />
<path d="M119.4163 62.2566
L75.6992 74.6490
" />
<path d="M148.9794 50.0395
L154.0269 50.0395
" />
<path d="M176.4087 143.5494
L163.3668 141.4838
" />
<path d="M197.2694 37.8861
L207.5489 52.3180
" />
<path d="M101.5185 85.6283
L103.0575 80.8916
" />
<path d="M103.0575 80.8916
L115.4057 74.5999
" />
<path d="M75.0349 105.5078
L75.0349 122.7336
" />
<path d="M75.0349 122.7336
L75.0082 122.7603
" />
<path d="M86.5489 60.5376
L75.6992 74.6490
" />
<path d="M152.6110 149.3075
L152.6110 149.3061
" />
<path d="M176.9564 59.1666
L151.6349 21.4778
" />
<path d="M102.3004 162.9694
L92.8861 149.0766
" />
<path d="M114.6207 125.5779
L104.0951 117.9306
" />
</g>
<g style="fill:none; 
stroke:#C83434; stroke-width:0.2000; stroke-opacity:1; 
stroke-linecap:round; stroke-linejoin:round;">
<path d="M79.6684 121.2461
L74.9667 124.6621
" />
<path d="M87.8948 144.1680
L89.5349 144.4278
" />
<path d="M74.9667 124.6621
L74.7441 126.0676
" />
<path d="M74.7441 126.0676
L87.8948 144.1680
" />
</g>
<g style="fill:#FFFFFF; fill-opacity:1.0000; stroke:none;">
<circle cx="128.7782" cy="167.2941" r="0.1500" /> 
</g>
<g style="fill:#FFFFFF; fill-opacity:1.0000; stroke:none;">
<circle cx="128.2883" cy="32.9675" r="0.1500" /> 
</g>
<g style="fill:#FFFFFF; fill-opacity:1.0000; stroke:none;">
<circle cx="80.0051" cy="101.1155" r="0.5000" /> 
</g>
<g style="fill:#FFFFFF; fill-opacity:1.0000; stroke:none;">
<circle cx="207.1189" cy="141.3698" r="0.1500" /> 
</g>
<g style="fill:#FFFFFF; fill-opacity:1.0000; stroke:none;">
<circle cx="153.4328" cy="173.5976" r="0.1500" /> 
</g>
<g style="fill:#FFFFFF; fill-opacity:1.0000; stroke:none;">
<circle cx="190.7581" cy="39.5043" r="0.1500" /> 
</g>
<g style="fill:#FFFFFF; fill-opacity:1.0000; stroke:none;">
<circle cx="104.7223" cy="42.3874" r="0.1500" /> 
</g>
<g style="fill:#FFFFFF; fill-opacity:1.0000; stroke:none;">
<circle cx="81.3165" cy="125.4665" r="0.1500" /> 
</g>
<g style="fill:#FFFFFF; fill-opacity:1.0000; stroke:none;">
<circle cx="220.8398" cy="120.5986" r="0.1500" /> 
</g>
<g style="fill:#FFFFFF; fill-opacity:1.0000; stroke:none;">
<circle cx="206.5493" cy="58.7717" r="0.1500" /> 
</g>
<g style="fill:#FFFFFF; fill-opacity:1.0000; stroke:none;">
<circle cx="225.0349" cy="105.5078" r="0.5000" /> 
</g>
<g style="fill:#FFFFFF; fill-opacity:1.0000; stroke:none;">
<circle cx="225.0349" cy="102.9678" r="0.5000" /> 
</g>
<g style="fill:#FFFFFF; fill-opacity:1.0000; stroke:none;">
<circle cx="225.0349" cy="100.4278" r="0.5000" /> 
</g>
<g style="fill:#FFFFFF; fill-opacity:1.0000; stroke:none;">
<circle cx="225.0349" cy="97.8878" r="0.5000" /> 
</g>
<g style="fill:#FFFFFF; fill-opacity:1.0000; stroke:none;">
<circle cx="225.0349" cy="95.3478" r="0.5000" /> 
</g>
<g style="fill:#FFFFFF; fill-opacity:1.0000; stroke:none;">
<circle cx="207.5489" cy="148.5376" r="0.5000" /> 
</g>
<g style="fill:#FFFFFF; fill-opacity:1.0000; stroke:none;">
<circle cx="209.0419" cy="146.4827" r="0.5000" /> 
</g>
<g style="fill:#FFFFFF; fill-opacity:1.0000; stroke:none;">
<circle cx="210.5349" cy="144.4278" r="0.5000" /> 
</g>
<g style="fill:#FFFFFF; fill-opacity:1.0000; stroke:none;">
<circle cx="212.0279" cy="142.3729" r="0.5000" /> 
</g>
<g style="fill:#FFFFFF; fill-opacity:1.0000; stroke:none;">
<circle cx="213.5208" cy="140.3180" r="0.5000" /> 
</g>
<g style="fill:#FFFFFF; fill-opacity:1.0000; stroke:none;">
<circle cx="75.0349" cy="95.3478" r="0.5000" /> 
</g>
<g style="fill:#FFFFFF; fill-opacity:1.0000; stroke:none;">
<circle cx="75.0349" cy="97.8878" r="0.5000" /> 
</g>
<g style="fill:#FFFFFF; fill-opacity:1.0000; stroke:none;">
<circle cx="75.0349" cy="100.4278" r="0.5000" /> 
</g>
<g style="fill:#FFFFFF; fill-opacity:1.0000; stroke:none;">
<circle cx="75.0349" cy="102.9678" r="0.5000" /> 
</g>
<g style="fill:#FFFFFF; fill-opacity:1.0000; stroke:none;">
<circle cx="75.0349" cy="105.5078" r="0.5000" /> 
</g>
<g style="fill:#FFFFFF; fill-opacity:1.0000; stroke:none;">
<circle cx="131.8663" cy="27.8580" r="0.5000" /> 
</g>
<g style="fill:#FFFFFF; fill-opacity:1.0000; stroke:none;">
<circle cx="129.4506" cy="28.6429" r="0.5000" /> 
</g>
<g style="fill:#FFFFFF; fill-opacity:1.0000; stroke:none;">
<circle cx="127.0349" cy="29.4278" r="0.5000" /> 
</g>
<g style="fill:#FFFFFF; fill-opacity:1.0000; stroke:none;">
<circle cx="124.6192" cy="30.2127" r="0.5000" /> 
</g>
<g style="fill:#FFFFFF; fill-opacity:1.0000; stroke:none;">
<circle cx="122.2035" cy="30.9976" r="0.5000" /> 
</g>
<g style="fill:#FFFFFF; fill-opacity:1.0000; stroke:none;">
<circle cx="177.8663" cy="169.8580" r="0.5000" /> 
</g>
<g style="fill:#FFFFFF; fill-opacity:1.0000; stroke:none;">
<circle cx="175.4506" cy="170.6429" r="0.5000" /> 
</g>
<g style="fill:#FFFFFF; fill-opacity:1.0000; stroke:none;">
<circle cx="173.0349" cy="171.4278" r="0.5000" /> 
</g>
<g style="fill:#FFFFFF; fill-opacity:1.0000; stroke:none;">
<circle cx="170.6192" cy="172.2127" r="0.5000" /> 
</g>
<g style="fill:#FFFFFF; fill-opacity:1.0000; stroke:none;">
<circle cx="168.2035" cy="172.9976" r="0.5000" /> 
</g>
<g style="fill:#FFFFFF; fill-opacity:1.0000; stroke:none;">
<circle cx="86.5489" cy="140.3180" r="0.5000" /> 
</g>
<g style="fill:#FFFFFF; fill-opacity:1.0000; stroke:none;">
<circle cx="88.0419" cy="142.3729" r="0.5000" /> 
</g>
<g style="fill:#FFFFFF; fill-opacity:1.0000; stroke:none;">
<circle cx="89.5349" cy="144.4278" r="0.5000" /> 
</g>
<g style="fill:#FFFFFF; fill-opacity:1.0000; stroke:none;">
<circle cx="91.0279" cy="146.4827" r="0.5000" /> 
</g>
<g style="fill:#FFFFFF; fill-opacity:1.0000; stroke:none;">
<circle cx="92.5208" cy="148.5376" r="0.5000" /> 
</g>
<g style="fill:#FFFFFF; fill-opacity:1.0000; stroke:none;">
<circle cx="213.5208" cy="60.5376" r="0.5000" /> 
</g>
<g style="fill:#FFFFFF; fill-opacity:1.0000; stroke:none;">
<circle cx="212.0279" cy="58.4827" r="0.5000" /> 
</g>
<g style="fill:#FFFFFF; fill-opacity:1.0000; stroke:none;">
<circle cx="210.5349" cy="56.4278" r="0.5000" /> 
</g>
<g style="fill:#FFFFFF; fill-opacity:1.0000; stroke:none;">
<circle cx="209.0419" cy="54.3729" r="0.5000" /> 
</g>
<g style="fill:#FFFFFF; fill-opacity:1.0000; stroke:none;">
<circle cx="207.5489" cy="52.3180" r="0.5000" /> 
</g>
<g style="fill:#FFFFFF; fill-opacity:1.0000; stroke:none;">
<circle cx="177.8663" cy="30.9976" r="0.5000" /> 
</g>
<g style="fill:#FFFFFF; fill-opacity:1.0000; stroke:none;">
<circle cx="175.4506" cy="30.2127" r="0.5000" /> 
</g>
<g style="fill:#FFFFFF; fill-opacity:1.0000; stroke:none;">
<circle cx="173.0349" cy="29.4278" r="0.5000" /> 
</g>
<g style="fill:#FFFFFF; fill-opacity:1.0000; stroke:none;">
<circle cx="170.6192" cy="28.6429" r="0.5000" /> 
</g>
<g style="fill:#FFFFFF; fill-opacity:1.0000; stroke:none;">
<circle cx="168.2035" cy="27.8580" r="0.5000" /> 
</g>
<g style="fill:#FFFFFF; fill-opacity:1.0000; stroke:none;">
<circle cx="131.8663" cy="172.9976" r="0.5000" /> 
</g>
<g style="fill:#FFFFFF; fill-opacity:1.0000; stroke:none;">
<circle cx="129.4506" cy="172.2127" r="0.5000" /> 
</g>
<g style="fill:#FFFFFF; fill-opacity:1.0000; stroke:none;">
<circle cx="127.0349" cy="171.4278" r="0.5000" /> 
</g>
<g style="fill:#FFFFFF; fill-opacity:1.0000; stroke:none;">
<circle cx="124.6192" cy="170.6429" r="0.5000" /> 
</g>
<g style="fill:#FFFFFF; fill-opacity:1.0000; stroke:none;">
<circle cx="122.2035" cy="169.8580" r="0.5000" /> 
</g>
<g style="fill:#FFFFFF; fill-opacity:1.0000; stroke:none;">
<circle cx="92.5208" cy="52.3180" r="0.5000" /> 
</g>
<g style="fill:#FFFFFF; fill-opacity:1.0000; stroke:none;">
<circle cx="91.0279" cy="54.3729" r="0.5000" /> 
</g>
<g style="fill:#FFFFFF; fill-opacity:1.0000; stroke:none;">
<circle cx="89.5349" cy="56.4278" r="0.5000" /> 
</g>
<g style="fill:#FFFFFF; fill-opacity:1.0000; stroke:none;">
<circle cx="88.0419" cy="58.4827" r="0.5000" /> 
</g>
<g style="fill:#FFFFFF; fill-opacity:1.0000; stroke:none;">
<circle cx="86.5489" cy="60.5376" r="0.5000" /> 
<path style="fill:#4D7FC4; fill-opacity:1.0000; stroke:none;fill-rule:evenodd;"
d="M 225.8849,104.6578
225.8849,106.3578
224.1849,106.3578
224.1849,104.6578
Z" /> 
</g>
<g style="fill:#4D7FC4; fill-opacity:1.0000; stroke:none;">
<circle cx="225.0349" cy="102.9678" r="0.8500" /> 
</g>
<g style="fill:#4D7FC4; fill-opacity:1.0000; stroke:none;">
<circle cx="225.0349" cy="100.4278" r="0.8500" /> 
</g>
<g style="fill:#4D7FC4; fill-opacity:1.0000; stroke:none;">
<circle cx="225.0349" cy="97.8878" r="0.8500" /> 
</g>
<g style="fill:#4D7FC4; fill-opacity:1.0000; stroke:none;">
<circle cx="225.0349" cy="95.3478" r="0.8500" /> 
<path style="fill:#4D7FC4; fill-opacity:1.0000; stroke:none;fill-rule:evenodd;"
d="M 208.7362,148.3495
207.7370,149.7249
206.3617,148.7256
207.3609,147.3503
Z" /> 
</g>
<g style="fill:#4D7FC4; fill-opacity:1.0000; stroke:none;">
<circle cx="209.0419" cy="146.4827" r="0.8500" /> 
</g>
<g style="fill:#4D7FC4; fill-opacity:1.0000; stroke:none;">
<circle cx="210.5349" cy="144.4278" r="0.8500" /> 
</g>
<g style="fill:#4D7FC4; fill-opacity:1.0000; stroke:none;">
<circle cx="212.0279" cy="142.3729" r="0.8500" /> 
</g>
<g style="fill:#4D7FC4; fill-opacity:1.0000; stroke:none;">
<circle cx="213.5208" cy="140.3180" r="0.8500" /> 
<path style="fill:#4D7FC4; fill-opacity:1.0000; stroke:none;fill-rule:evenodd;"
d="M 74.1849,96.1978
74.1849,94.4978
75.8849,94.4978
75.8849,96.1978
Z" /> 
</g>
<g style="fill:#4D7FC4; fill-opacity:1.0000; stroke:none;">
<circle cx="75.0349" cy="97.8878" r="0.8500" /> 
</g>
<g style="fill:#4D7FC4; fill-opacity:1.0000; stroke:none;">
<circle cx="75.0349" cy="100.4278" r="0.8500" /> 
</g>
<g style="fill:#4D7FC4; fill-opacity:1.0000; stroke:none;">
<circle cx="75.0349" cy="102.9678" r="0.8500" /> 
</g>
<g style="fill:#4D7FC4; fill-opacity:1.0000; stroke:none;">
<circle cx="75.0349" cy="105.5078" r="0.8500" /> 
<path style="fill:#4D7FC4; fill-opacity:1.0000; stroke:none;fill-rule:evenodd;"
d="M 130.7952,27.3122
132.4120,26.7869
132.9373,28.4037
131.3205,28.9290
Z" /> 
</g>
<g style="fill:#4D7FC4; fill-opacity:1.0000; stroke:none;">
<circle cx="129.4506" cy="28.6429" r="0.8500" /> 
</g>
<g style="fill:#4D7FC4; fill-opacity:1.0000; stroke:none;">
<circle cx="127.0349" cy="29.4278" r="0.8500" /> 
</g>
<g style="fill:#4D7FC4; fill-opacity:1.0000; stroke:none;">
<circle cx="124.6192" cy="30.2127" r="0.8500" /> 
</g>
<g style="fill:#4D7FC4; fill-opacity:1.0000; stroke:none;">
<circle cx="122.2035" cy="30.9976" r="0.8500" /> 
<path style="fill:#4D7FC4; fill-opacity:1.0000; stroke:none;fill-rule:evenodd;"
d="M 176.7952,169.3122
178.4120,168.7869
178.9373,170.4037
177.3205,170.9290
Z" /> 
</g>
<g style="fill:#4D7FC4; fill-opacity:1.0000; stroke:none;">
<circle cx="175.4506" cy="170.6429" r="0.8500" /> 
</g>
<g style="fill:#4D7FC4; fill-opacity:1.0000; stroke:none;">
<circle cx="173.0349" cy="171.4278" r="0.8500" /> 
</g>
<g style="fill:#4D7FC4; fill-opacity:1.0000; stroke:none;">
<circle cx="170.6192" cy="172.2127" r="0.8500" /> 
</g>
<g style="fill:#4D7FC4; fill-opacity:1.0000; stroke:none;">
<circle cx="168.2035" cy="172.9976" r="0.8500" /> 
<path style="fill:#4D7FC4; fill-opacity:1.0000; stroke:none;fill-rule:evenodd;"
d="M 86.3609,141.5053
85.3617,140.1299
86.7370,139.1307
87.7362,140.5060
Z" /> 
</g>
<g style="fill:#4D7FC4; fill-opacity:1.0000; stroke:none;">
<circle cx="88.0419" cy="142.3729" r="0.8500" /> 
</g>
<g style="fill:#4D7FC4; fill-opacity:1.0000; stroke:none;">
<circle cx="89.5349" cy="144.4278" r="0.8500" /> 
</g>
<g style="fill:#4D7FC4; fill-opacity:1.0000; stroke:none;">
<circle cx="91.0279" cy="146.4827" r="0.8500" /> 
</g>
<g style="fill:#4D7FC4; fill-opacity:1.0000; stroke:none;">
<circle cx="92.5208" cy="148.5376" r="0.8500" /> 
<path style="fill:#4D7FC4; fill-opacity:1.0000; stroke:none;fill-rule:evenodd;"
d="M 213.7089,59.3503
214.7081,60.7256
213.3328,61.7249
212.3336,60.3495
Z" /> 
</g>
<g style="fill:#4D7FC4; fill-opacity:1.0000; stroke:none;">
<circle cx="212.0279" cy="58.4827" r="0.8500" /> 
</g>
<g style="fill:#4D7FC4; fill-opacity:1.0000; stroke:none;">
<circle cx="210.5349" cy="56.4278" r="0.8500" /> 
</g>
<g style="fill:#4D7FC4; fill-opacity:1.0000; stroke:none;">
<circle cx="209.0419" cy="54.3729" r="0.8500" /> 
</g>
<g style="fill:#4D7FC4; fill-opacity:1.0000; stroke:none;">
<circle cx="207.5489" cy="52.3180" r="0.8500" /> 
<path style="fill:#4D7FC4; fill-opacity:1.0000; stroke:none;fill-rule:evenodd;"
d="M 177.3205,29.9265
178.9373,30.4519
178.4120,32.0687
176.7952,31.5433
Z" /> 
</g>
<g style="fill:#4D7FC4; fill-opacity:1.0000; stroke:none;">
<circle cx="175.4506" cy="30.2127" r="0.8500" /> 
</g>
<g style="fill:#4D7FC4; fill-opacity:1.0000; stroke:none;">
<circle cx="173.0349" cy="29.4278" r="0.8500" /> 
</g>
<g style="fill:#4D7FC4; fill-opacity:1.0000; stroke:none;">
<circle cx="170.6192" cy="28.6429" r="0.8500" /> 
</g>
<g style="fill:#4D7FC4; fill-opacity:1.0000; stroke:none;">
<circle cx="168.2035" cy="27.8580" r="0.8500" /> 
<path style="fill:#4D7FC4; fill-opacity:1.0000; stroke:none;fill-rule:evenodd;"
d="M 131.3205,171.9265
132.9373,172.4519
132.4120,174.0687
130.7952,173.5433
Z" /> 
</g>
<g style="fill:#4D7FC4; fill-opacity:1.0000; stroke:none;">
<circle cx="129.4506" cy="172.2127" r="0.8500" /> 
</g>
<g style="fill:#4D7FC4; fill-opacity:1.0000; stroke:none;">
<circle cx="127.0349" cy="171.4278" r="0.8500" /> 
</g>
<g style="fill:#4D7FC4; fill-opacity:1.0000; stroke:none;">
<circle cx="124.6192" cy="170.6429" r="0.8500" /> 
</g>
<g style="fill:#4D7FC4; fill-opacity:1.0000; stroke:none;">
<circle cx="122.2035" cy="169.8580" r="0.8500" /> 
<path style="fill:#4D7FC4; fill-opacity:1.0000; stroke:none;fill-rule:evenodd;"
d="M 91.3336,52.5060
92.3328,51.1307
93.7081,52.1299
92.7089,53.5053
Z" /> 
</g>
<g style="fill:#4D7FC4; fill-opacity:1.0000; stroke:none;">
<circle cx="91.0279" cy="54.3729" r="0.8500" /> 
</g>
<g style="fill:#4D7FC4; fill-opacity:1.0000; stroke:none;">
<circle cx="89.5349" cy="56.4278" r="0.8500" /> 
</g>
<g style="fill:#4D7FC4; fill-opacity:1.0000; stroke:none;">
<circle cx="88.0419" cy="58.4827" r="0.8500" /> 
</g>
<g style="fill:#4D7FC4; fill-opacity:1.0000; stroke:none;">
<circle cx="86.5489" cy="60.5376" r="0.8500" /> 
<path style="fill:#4D7FC4; fill-opacity:1.0000; stroke:none;fill-rule:evenodd;"
d="M 150.1849,20.7749
150.6849,20.7749
150.6849,20.7792
150.7502,20.7792
150.8762,20.8130
150.9893,20.8782
151.0816,20.9705
151.1468,21.0836
151.1806,21.2096
151.1806,21.2749
151.1849,21.2749
151.1849,21.7749
151.1806,21.7749
151.1806,21.8402
151.1468,21.9662
151.0816,22.0793
150.9893,22.1716
150.8762,22.2368
150.7502,22.2706
150.6849,22.2706
150.6849,22.2749
150.1849,22.2749
Z" /> 
<path style="fill:#4D7FC4; fill-opacity:1.0000; stroke:none;fill-rule:evenodd;"
d="M 149.3849,22.2706
149.3196,22.2706
149.1935,22.2368
149.0805,22.1716
148.9882,22.0793
148.9229,21.9662
148.8892,21.8402
148.8892,21.7749
148.8849,21.7749
148.8849,21.2749
148.8892,21.2749
148.8892,21.2096
148.9229,21.0836
148.9882,20.9705
149.0805,20.8782
149.1935,20.8130
149.3196,20.7792
149.3849,20.7792
149.3849,20.7749
149.8849,20.7749
149.8849,22.2749
149.3849,22.2749
Z" /> 
<path style="fill:#4D7FC4; fill-opacity:1.0000; stroke:none;fill-rule:evenodd;"
d="M 103.2705,164.0435
102.8660,163.7496
102.8685,163.7461
102.8158,163.7078
102.7336,163.6063
102.6805,163.4871
102.6601,163.3582
102.6737,163.2284
102.7205,163.1065
102.7589,163.0537
102.7554,163.0512
103.0493,162.6467
103.0528,162.6492
103.0911,162.5964
103.1926,162.5143
103.3118,162.4612
103.4407,162.4407
103.5705,162.4544
103.6924,162.5012
103.7452,162.5395
103.7477,162.5361
104.1522,162.8300
Z" /> 
<path style="fill:#4D7FC4; fill-opacity:1.0000; stroke:none;fill-rule:evenodd;"
d="M 104.7969,163.3036
104.8497,163.3420
104.9319,163.4434
104.9850,163.5627
105.0054,163.6916
104.9917,163.8214
104.9449,163.9433
104.9066,163.9961
104.9101,163.9986
104.6162,164.4031
104.6127,164.4006
104.5743,164.4534
104.4729,164.5355
104.3537,164.5886
104.2247,164.6090
104.0949,164.5954
103.9731,164.5486
103.9203,164.5103
103.9178,164.5137
103.5132,164.2198
104.3949,163.0063
104.7994,163.3002
Z" /> 
<path style="fill:#4D7FC4; fill-opacity:1.0000; stroke:none;fill-rule:evenodd;"
d="M 196.1522,164.2198
195.7477,164.5137
195.7452,164.5103
195.6924,164.5486
195.5705,164.5954
195.4407,164.6090
195.3118,164.5886
195.1926,164.5355
195.0911,164.4534
195.0528,164.4006
195.0493,164.4031
194.7554,163.9986
194.7589,163.9961
194.7205,163.9433
194.6737,163.8214
194.6601,163.6916
194.6805,163.5627
194.7336,163.4434
194.8157,163.3420
194.8685,163.3037
194.8660,163.3002
195.2705,163.0063
Z" /> 
<path style="fill:#4D7FC4; fill-opacity:1.0000; stroke:none;fill-rule:evenodd;"
d="M 195.9203,162.5395
195.9731,162.5012
196.0949,162.4544
196.2247,162.4407
196.3537,162.4612
196.4729,162.5143
196.5743,162.5964
196.6127,162.6492
196.6162,162.6467
196.9100,163.0512
196.9066,163.0537
196.9449,163.1065
196.9917,163.2284
197.0054,163.3582
196.9850,163.4871
196.9319,163.6063
196.8497,163.7078
196.7969,163.7461
196.7994,163.7496
196.3949,164.0435
195.5132,162.8300
195.9178,162.5361
Z" /> 
<path style="fill:#4D7FC4; fill-opacity:1.0000; stroke:none;fill-rule:evenodd;"
d="M 149.8849,179.2749
149.3849,179.2749
149.3849,179.2706
149.3196,179.2706
149.1935,179.2368
149.0805,179.1716
148.9882,179.0793
148.9229,178.9662
148.8892,178.8402
148.8892,178.7749
148.8849,178.7749
148.8849,178.2749
148.8892,178.2749
148.8892,178.2096
148.9229,178.0836
148.9882,177.9705
149.0805,177.8782
149.1935,177.8130
149.3196,177.7792
149.3849,177.7792
149.3849,177.7749
149.8849,177.7749
Z" /> 
<path style="fill:#4D7FC4; fill-opacity:1.0000; stroke:none;fill-rule:evenodd;"
d="M 150.6849,177.7792
150.7502,177.7792
150.8762,177.8130
150.9893,177.8782
151.0816,177.9705
151.1468,178.0836
151.1806,178.2096
151.1806,178.2749
151.1849,178.2749
151.1849,178.7749
151.1806,178.7749
151.1806,178.8402
151.1468,178.9662
151.0816,179.0793
150.9893,179.1716
150.8762,179.2368
150.7502,179.2706
150.6849,179.2706
150.6849,179.2749
150.1849,179.2749
150.1849,177.7749
150.6849,177.7749
Z" /> 
<path style="fill:#4D7FC4; fill-opacity:1.0000; stroke:none;fill-rule:evenodd;"
d="M 104.0132,35.8300
104.4178,35.5361
104.4203,35.5395
104.4731,35.5012
104.5949,35.4544
104.7247,35.4408
104.8537,35.4612
104.9729,35.5143
105.0743,35.5964
105.1127,35.6492
105.1162,35.6467
105.4100,36.0512
105.4066,36.0537
105.4449,36.1065
105.4917,36.2284
105.5054,36.3582
105.4850,36.4871
105.4319,36.6063
105.3497,36.7078
105.2969,36.7461
105.2994,36.7496
104.8949,37.0435
Z" /> 
<path style="fill:#4D7FC4; fill-opacity:1.0000; stroke:none;fill-rule:evenodd;"
d="M 104.2452,37.5103
104.1924,37.5486
104.0705,37.5954
103.9407,37.6090
103.8118,37.5886
103.6926,37.5355
103.5911,37.4534
103.5528,37.4006
103.5493,37.4031
103.2554,36.9986
103.2589,36.9961
103.2205,36.9433
103.1737,36.8214
103.1601,36.6916
103.1805,36.5627
103.2336,36.4434
103.3157,36.3420
103.3685,36.3037
103.3660,36.3002
103.7705,36.0063
104.6522,37.2198
104.2477,37.5137
Z" /> 
<path style="fill:#4D7FC4; fill-opacity:1.0000; stroke:none;fill-rule:evenodd;"
d="M 224.9997,124.8993
224.8452,125.3748
224.8411,125.3735
224.8209,125.4356
224.7498,125.5451
224.6528,125.6324
224.5365,125.6917
224.4089,125.7188
224.2785,125.7120
224.2165,125.6918
224.2151,125.6959
223.7396,125.5414
223.7409,125.5373
223.6789,125.5171
223.5694,125.4460
223.4820,125.3490
223.4228,125.2327
223.3957,125.1051
223.4025,124.9747
223.4227,124.9126
223.4186,124.9113
223.5731,124.4358
Z" /> 
<path style="fill:#4D7FC4; fill-opacity:1.0000; stroke:none;fill-rule:evenodd;"
d="M 223.8244,123.6763
223.8445,123.6142
223.9156,123.5047
224.0126,123.4174
224.1289,123.3581
224.2566,123.3310
224.3870,123.3378
224.4490,123.3580
224.4503,123.3539
224.9259,123.5084
224.9245,123.5125
224.9866,123.5327
225.0961,123.6038
225.1834,123.7008
225.2427,123.8171
225.2698,123.9447
225.2630,124.0751
225.2428,124.1371
225.2469,124.1385
225.0924,124.6140
223.6658,124.1505
223.8203,123.6749
Z" /> 
<path style="fill:#4D7FC4; fill-opacity:1.0000; stroke:none;fill-rule:evenodd;"
d="M 225.0924,75.4358
225.2469,75.9113
225.2428,75.9126
225.2630,75.9747
225.2698,76.1051
225.2427,76.2327
225.1834,76.3490
225.0961,76.4460
224.9866,76.5171
224.9245,76.5373
224.9259,76.5414
224.4503,76.6959
224.4490,76.6918
224.3869,76.7120
224.2566,76.7188
224.1289,76.6917
224.0126,76.6324
223.9156,76.5451
223.8445,76.4356
223.8244,76.3735
223.8203,76.3748
223.6658,75.8993
Z" /> 
<path style="fill:#4D7FC4; fill-opacity:1.0000; stroke:none;fill-rule:evenodd;"
d="M 223.4226,75.1371
223.4025,75.0751
223.3957,74.9447
223.4228,74.8171
223.4820,74.7008
223.5694,74.6038
223.6789,74.5327
223.7409,74.5125
223.7396,74.5084
224.2151,74.3539
224.2165,74.3580
224.2785,74.3378
224.4089,74.3310
224.5365,74.3581
224.6528,74.4174
224.7498,74.5047
224.8209,74.6142
224.8411,74.6763
224.8452,74.6749
224.9997,75.1505
223.5731,75.6140
223.4186,75.1385
Z" /> 
<path style="fill:#4D7FC4; fill-opacity:1.0000; stroke:none;fill-rule:evenodd;"
d="M 196.3949,37.0063
196.7994,37.3002
196.7969,37.3036
196.8497,37.3420
196.9319,37.4434
196.9850,37.5627
197.0054,37.6916
196.9917,37.8214
196.9449,37.9433
196.9066,37.9961
196.9101,37.9986
196.6162,38.4031
196.6127,38.4006
196.5743,38.4534
196.4729,38.5355
196.3537,38.5886
196.2247,38.6090
196.0949,38.5954
195.9731,38.5486
195.9203,38.5102
195.9178,38.5137
195.5132,38.2198
Z" /> 
<path style="fill:#4D7FC4; fill-opacity:1.0000; stroke:none;fill-rule:evenodd;"
d="M 194.8685,37.7461
194.8158,37.7078
194.7336,37.6063
194.6805,37.4871
194.6601,37.3582
194.6737,37.2284
194.7205,37.1065
194.7589,37.0537
194.7554,37.0512
195.0493,36.6467
195.0528,36.6492
195.0911,36.5964
195.1926,36.5143
195.3118,36.4612
195.4407,36.4407
195.5705,36.4544
195.6924,36.5012
195.7452,36.5395
195.7477,36.5361
196.1522,36.8300
195.2705,38.0435
194.8660,37.7496
Z" /> 
</g>
<g style="fill:#4D7FC4; fill-opacity:1.0000; stroke:none;">
<circle cx="128.7782" cy="167.2941" r="0.3000" /> 
</g>
<g style="fill:#4D7FC4; fill-opacity:1.0000; stroke:none;">
<circle cx="128.2883" cy="32.9675" r="0.3000" /> 
</g>
<g style="fill:#4D7FC4; fill-opacity:1.0000; stroke:none;">
<circle cx="80.0051" cy="101.1155" r="0.8090" /> 
</g>
<g style="fill:#4D7FC4; fill-opacity:1.0000; stroke:none;">
<circle cx="207.1189" cy="141.3698" r="0.3000" /> 
</g>
<g style="fill:#4D7FC4; fill-opacity:1.0000; stroke:none;">
<circle cx="153.4328" cy="173.5976" r="0.3000" /> 
</g>
<g style="fill:#4D7FC4; fill-opacity:1.0000; stroke:none;">
<circle cx="190.7581" cy="39.5043" r="0.3000" /> 
</g>
<g style="fill:#4D7FC4; fill-opacity:1.0000; stroke:none;">
<circle cx="104.7223" cy="42.3874" r="0.3000" /> 
</g>
<g style="fill:#4D7FC4; fill-opacity:1.0000; stroke:none;">
<circle cx="81.3165" cy="125.4665" r="0.3000" /> 
</g>
<g style="fill:#4D7FC4; fill-opacity:1.0000; stroke:none;">
<circle cx="220.8398" cy="120.5986" r="0.3000" /> 
</g>
<g style="fill:#4D7FC4; fill-opacity:1.0000; stroke:none;">
<circle cx="206.5493" cy="58.7717" r="0.3000" /> 
</g>
<g style="fill:none; 
stroke:#4D7FC4; stroke-width:1.6180; stroke-opacity:1; 
stroke-linecap:round; stroke-linejoin:round;">
<path d="M80.0051 101.1155
L81.3165 125.4665
" />
<path d="M153.4328 173.5976
L128.7782 167.2941
" />
<path d="M220.8398 120.5986
L207.1189 141.3698
" />
<path d="M206.5493 58.7717
L190.7581 39.5043
" />
<path d="M128.2883 32.9675
L104.7223 42.3874
" />
</g>
<g style="fill:none; 
stroke:#4D7FC4; stroke-width:0.2000; stroke-opacity:1; 
stroke-linecap:round; stroke-linejoin:round;">
<path d="M125.5845 28.6888
L105.2981 35.2803
" />
<path d="M105.2981 35.2803
L104.8586 36.1428
" />
<path d="M127.0349 29.4278
L125.5845 28.6888
" />
<path d="M149.3849 21.5249
L148.7026 21.1773
" />
<path d="M127.7739 27.9774
L127.0349 29.4278
" />
<path d="M148.7026 21.1773
L127.7739 27.9774
" />
<path d="M173.0349 29.4278
L174.4852 28.6888
" />
<path d="M174.4852 28.6888
L194.2757 35.1191
" />
<path d="M172.2959 27.9774
L151.3671 21.1773
" />
<path d="M173.0349 29.4278
L172.2959 27.9774
" />
<path d="M194.2757 35.1191
L195.3069 37.1428
" />
<path d="M151.3671 21.1773
L150.6849 21.5249
" />
<path d="M198.7801 38.2905
L196.3586 37.9070
" />
<path d="M224.4295 73.0277
L224.1319 74.9067
" />
<path d="M210.5349 56.4278
L212.6074 56.7560
" />
<path d="M210.5349 56.4278
L210.7895 54.8201
" />
<path d="M210.7895 54.8201
L198.7801 38.2905
" />
<path d="M212.6074 56.7560
L224.4295 73.0277
" />
<path d="M226.1859 122.2544
L224.5336 123.9067
" />
<path d="M225.0349 100.4278
L226.1859 99.2768
" />
<path d="M225.0349 100.4278
L226.1859 101.5788
" />
<path d="M226.1859 101.5788
L226.1859 122.2544
" />
<path d="M226.1859 99.2768
L226.1859 77.7954
" />
<path d="M226.1859 77.7954
L224.5336 76.1431
" />
<path d="M210.5349 144.4278
L212.1426 144.1731
" />
<path d="M210.7895 146.0355
L198.6206 162.7846
" />
<path d="M224.4606 127.2188
L224.1319 125.1431
" />
<path d="M198.6206 162.7846
L196.3586 163.1428
" />
<path d="M210.5349 144.4278
L210.7895 146.0355
" />
<path d="M212.1426 144.1731
L224.4606 127.2188
" />
</g>
<g style="fill:none; 
stroke:#4D7FC4; stroke-width:1.6180; stroke-opacity:1; 
stroke-linecap:round; stroke-linejoin:round;">
<path d="M223.8916 95.7192
L225.0349 95.3478
" />
<path d="M87.4997 140.0091
L91.5509 142.0733
" />
<path d="M131.8663 27.8580
L131.8942 27.9440
" />
<path d="M225.0349 105.5078
L223.6802 104.8175
" />
<path d="M207.5489 148.5376
L206.9097 146.5703
" />
<path d="M75.0349 95.3478
L75.3327 76.0249
" />
<path d="M194.3327 161.5249
L177.8663 169.8580
" />
<path d="M177.8663 30.9976
L177.6306 31.4601
" />
<path d="M90.4183 59.6663
L87.0114 60.7732
" />
<path d="M92.5208 52.3180
L105.3327 38.5249
" />
<path d="M105.3327 38.5249
L122.2035 30.9976
" />
<path d="M122.2315 31.0836
L122.2035 30.9976
" />
<path d="M124.4612 32.2197
L122.2315 31.0836
" />
<path d="M177.8383 169.7720
L175.6085 168.6358
" />
<path d="M222.3327 77.0249
L225.0349 95.3478
" />
<path d="M149.8327 23.5249
L168.2035 27.8580
" />
<path d="M213.5208 60.5376
L222.3327 77.0249
" />
<path d="M92.5208 52.3180
L93.1600 54.2852
" />
<path d="M177.8663 30.9976
L194.5128 38.8449
" />
<path d="M74.4499 106.0928
L74.4499 124.9868
" />
<path d="M194.5128 38.8449
L207.5489 52.3180
" />
<path d="M212.4498 139.7722
L213.5208 140.3180
" />
<path d="M223.6802 104.8175
L221.9574 99.5154
" />
<path d="M206.9097 146.5703
L209.9616 140.5807
" />
<path d="M87.0114 60.7732
L86.5489 60.5376
" />
<path d="M177.8663 169.8580
L177.8383 169.7720
" />
<path d="M125.3159 167.9530
L122.7493 168.7869
" />
<path d="M206.8587 53.6727
L207.5489 52.3180
" />
<path d="M207.5489 148.5376
L194.3327 161.5249
" />
<path d="M122.2035 169.8580
L104.8327 161.5249
" />
<path d="M222.3327 124.0249
L213.5208 140.3180
" />
<path d="M91.5509 142.0733
L93.2111 147.1829
" />
<path d="M212.5701 60.8465
L208.5189 58.7823
" />
<path d="M74.4499 124.9868
L85.2991 139.9194
" />
<path d="M122.7493 168.7869
L122.2035 169.8580
" />
<path d="M85.6976 140.3180
L86.5489 140.3180
" />
<path d="M131.8663 172.9976
L131.2016 170.9518
" />
<path d="M174.2238 32.5670
L168.8427 29.8252
" />
<path d="M131.2016 170.9518
L125.3159 167.9530
" />
<path d="M130.7581 30.1738
L124.4612 32.2197
" />
<path d="M168.7393 170.8678
L167.9896 172.3392
" />
<path d="M221.9574 99.5154
L223.8916 95.7192
" />
<path d="M75.9856 105.1989
L75.0349 105.5078
" />
<path d="M93.1600 54.2852
L90.4183 59.6663
" />
<path d="M167.9896 172.3392
L168.2035 172.9976
" />
<path d="M225.0349 105.5078
L222.3327 124.0249
" />
<path d="M208.5189 58.7823
L206.8587 53.6727
" />
<path d="M86.5489 140.3180
L87.4997 140.0091
" />
<path d="M93.2111 147.1829
L92.5208 148.5376
" />
<path d="M104.8327 161.5249
L92.5208 148.5376
" />
<path d="M177.6306 31.4601
L174.2238 32.5670
" />
<path d="M75.3327 76.0249
L86.5489 60.5376
" />
<path d="M78.0498 101.1477
L75.9856 105.1989
" />
<path d="M149.8327 176.5249
L131.8663 172.9976
" />
<path d="M213.5208 60.5376
L212.5701 60.8465
" />
<path d="M75.0349 95.3478
L76.3896 96.0380
" />
<path d="M76.3896 96.0380
L78.0498 101.1477
" />
<path d="M168.2035 172.9976
L149.8327 176.5249
" />
<path d="M131.8942 27.9440
L130.7581 30.1738
" />
<path d="M75.0349 105.5078
L74.4499 106.0928
" />
<path d="M209.9616 140.5807
L212.4498 139.7722
" />
<path d="M131.8663 27.8580
L149.8327 23.5249
" />
<path d="M175.6085 168.6358
L168.7393 170.8678
" />
<path d="M85.2991 139.9194
L85.6976 140.3180
" />
<path d="M168.8427 29.8252
L168.2035 27.8580
" />
</g>
<g style="fill:none; 
stroke:#4D7FC4; stroke-width:0.2000; stroke-opacity:1; 
stroke-linecap:round; stroke-linejoin:round;">
<path d="M101.5017 162.8569
L103.3069 163.1428
" />
<path d="M89.2802 146.0355
L101.5017 162.8569
" />
<path d="M89.5349 144.4278
L89.2802 146.0355
" />
<path d="M172.2959 172.8781
L152.3328 179.3645
" />
<path d="M174.4852 172.1668
L194.3943 165.6979
" />
<path d="M194.3943 165.6979
L195.3069 163.9070
" />
<path d="M173.0349 171.4278
L174.4852 172.1668
" />
<path d="M152.3328 179.3645
L150.6849 178.5249
" />
<path d="M173.0349 171.4278
L172.2959 172.8781
" />
<path d="M127.0349 171.4278
L127.7739 172.8781
" />
<path d="M105.1909 165.5405
L104.3586 163.9070
" />
<path d="M125.5845 172.1668
L105.1909 165.5405
" />
<path d="M127.0349 171.4278
L125.5845 172.1668
" />
<path d="M127.7739 172.8781
L147.7370 179.3645
" />
<path d="M147.7370 179.3645
L149.3849 178.5249
" />
</g>
<g style="fill:#FFFFFF; fill-opacity:1.0000; stroke:none;">
<circle cx="128.7782" cy="167.2941" r="0.1500" /> 
</g>
<g style="fill:#FFFFFF; fill-opacity:1.0000; stroke:none;">
<circle cx="128.2883" cy="32.9675" r="0.1500" /> 
</g>
<g style="fill:#FFFFFF; fill-opacity:1.0000; stroke:none;">
<circle cx="80.0051" cy="101.1155" r="0.5000" /> 
</g>
<g style="fill:#FFFFFF; fill-opacity:1.0000; stroke:none;">
<circle cx="207.1189" cy="141.3698" r="0.1500" /> 
</g>
<g style="fill:#FFFFFF; fill-opacity:1.0000; stroke:none;">
<circle cx="153.4328" cy="173.5976" r="0.1500" /> 
</g>
<g style="fill:#FFFFFF; fill-opacity:1.0000; stroke:none;">
<circle cx="190.7581" cy="39.5043" r="0.1500" /> 
</g>
<g style="fill:#FFFFFF; fill-opacity:1.0000; stroke:none;">
<circle cx="104.7223" cy="42.3874" r="0.1500" /> 
</g>
<g style="fill:#FFFFFF; fill-opacity:1.0000; stroke:none;">
<circle cx="81.3165" cy="125.4665" r="0.1500" /> 
</g>
<g style="fill:#FFFFFF; fill-opacity:1.0000; stroke:none;">
<circle cx="220.8398" cy="120.5986" r="0.1500" /> 
</g>
<g style="fill:#FFFFFF; fill-opacity:1.0000; stroke:none;">
<circle cx="206.5493" cy="58.7717" r="0.1500" /> 
</g>
<g style="fill:#FFFFFF; fill-opacity:1.0000; stroke:none;">
<circle cx="225.0349" cy="105.5078" r="0.5000" /> 
</g>
<g style="fill:#FFFFFF; fill-opacity:1.0000; stroke:none;">
<circle cx="225.0349" cy="102.9678" r="0.5000" /> 
</g>
<g style="fill:#FFFFFF; fill-opacity:1.0000; stroke:none;">
<circle cx="225.0349" cy="100.4278" r="0.5000" /> 
</g>
<g style="fill:#FFFFFF; fill-opacity:1.0000; stroke:none;">
<circle cx="225.0349" cy="97.8878" r="0.5000" /> 
</g>
<g style="fill:#FFFFFF; fill-opacity:1.0000; stroke:none;">
<circle cx="225.0349" cy="95.3478" r="0.5000" /> 
</g>
<g style="fill:#FFFFFF; fill-opacity:1.0000; stroke:none;">
<circle cx="207.5489" cy="148.5376" r="0.5000" /> 
</g>
<g style="fill:#FFFFFF; fill-opacity:1.0000; stroke:none;">
<circle cx="209.0419" cy="146.4827" r="0.5000" /> 
</g>
<g style="fill:#FFFFFF; fill-opacity:1.0000; stroke:none;">
<circle cx="210.5349" cy="144.4278" r="0.5000" /> 
</g>
<g style="fill:#FFFFFF; fill-opacity:1.0000; stroke:none;">
<circle cx="212.0279" cy="142.3729" r="0.5000" /> 
</g>
<g style="fill:#FFFFFF; fill-opacity:1.0000; stroke:none;">
<circle cx="213.5208" cy="140.3180" r="0.5000" /> 
</g>
<g style="fill:#FFFFFF; fill-opacity:1.0000; stroke:none;">
<circle cx="75.0349" cy="95.3478" r="0.5000" /> 
</g>
<g style="fill:#FFFFFF; fill-opacity:1.0000; stroke:none;">
<circle cx="75.0349" cy="97.8878" r="0.5000" /> 
</g>
<g style="fill:#FFFFFF; fill-opacity:1.0000; stroke:none;">
<circle cx="75.0349" cy="100.4278" r="0.5000" /> 
</g>
<g style="fill:#FFFFFF; fill-opacity:1.0000; stroke:none;">
<circle cx="75.0349" cy="102.9678" r="0.5000" /> 
</g>
<g style="fill:#FFFFFF; fill-opacity:1.0000; stroke:none;">
<circle cx="75.0349" cy="105.5078" r="0.5000" /> 
</g>
<g style="fill:#FFFFFF; fill-opacity:1.0000; stroke:none;">
<circle cx="131.8663" cy="27.8580" r="0.5000" /> 
</g>
<g style="fill:#FFFFFF; fill-opacity:1.0000; stroke:none;">
<circle cx="129.4506" cy="28.6429" r="0.5000" /> 
</g>
<g style="fill:#FFFFFF; fill-opacity:1.0000; stroke:none;">
<circle cx="127.0349" cy="29.4278" r="0.5000" /> 
</g>
<g style="fill:#FFFFFF; fill-opacity:1.0000; stroke:none;">
<circle cx="124.6192" cy="30.2127" r="0.5000" /> 
</g>
<g style="fill:#FFFFFF; fill-opacity:1.0000; stroke:none;">
<circle cx="122.2035" cy="30.9976" r="0.5000" /> 
</g>
<g style="fill:#FFFFFF; fill-opacity:1.0000; stroke:none;">
<circle cx="177.8663" cy="169.8580" r="0.5000" /> 
</g>
<g style="fill:#FFFFFF; fill-opacity:1.0000; stroke:none;">
<circle cx="175.4506" cy="170.6429" r="0.5000" /> 
</g>
<g style="fill:#FFFFFF; fill-opacity:1.0000; stroke:none;">
<circle cx="173.0349" cy="171.4278" r="0.5000" /> 
</g>
<g style="fill:#FFFFFF; fill-opacity:1.0000; stroke:none;">
<circle cx="170.6192" cy="172.2127" r="0.5000" /> 
</g>
<g style="fill:#FFFFFF; fill-opacity:1.0000; stroke:none;">
<circle cx="168.2035" cy="172.9976" r="0.5000" /> 
</g>
<g style="fill:#FFFFFF; fill-opacity:1.0000; stroke:none;">
<circle cx="86.5489" cy="140.3180" r="0.5000" /> 
</g>
<g style="fill:#FFFFFF; fill-opacity:1.0000; stroke:none;">
<circle cx="88.0419" cy="142.3729" r="0.5000" /> 
</g>
<g style="fill:#FFFFFF; fill-opacity:1.0000; stroke:none;">
<circle cx="89.5349" cy="144.4278" r="0.5000" /> 
</g>
<g style="fill:#FFFFFF; fill-opacity:1.0000; stroke:none;">
<circle cx="91.0279" cy="146.4827" r="0.5000" /> 
</g>
<g style="fill:#FFFFFF; fill-opacity:1.0000; stroke:none;">
<circle cx="92.5208" cy="148.5376" r="0.5000" /> 
</g>
<g style="fill:#FFFFFF; fill-opacity:1.0000; stroke:none;">
<circle cx="213.5208" cy="60.5376" r="0.5000" /> 
</g>
<g style="fill:#FFFFFF; fill-opacity:1.0000; stroke:none;">
<circle cx="212.0279" cy="58.4827" r="0.5000" /> 
</g>
<g style="fill:#FFFFFF; fill-opacity:1.0000; stroke:none;">
<circle cx="210.5349" cy="56.4278" r="0.5000" /> 
</g>
<g style="fill:#FFFFFF; fill-opacity:1.0000; stroke:none;">
<circle cx="209.0419" cy="54.3729" r="0.5000" /> 
</g>
<g style="fill:#FFFFFF; fill-opacity:1.0000; stroke:none;">
<circle cx="207.5489" cy="52.3180" r="0.5000" /> 
</g>
<g style="fill:#FFFFFF; fill-opacity:1.0000; stroke:none;">
<circle cx="177.8663" cy="30.9976" r="0.5000" /> 
</g>
<g style="fill:#FFFFFF; fill-opacity:1.0000; stroke:none;">
<circle cx="175.4506" cy="30.2127" r="0.5000" /> 
</g>
<g style="fill:#FFFFFF; fill-opacity:1.0000; stroke:none;">
<circle cx="173.0349" cy="29.4278" r="0.5000" /> 
</g>
<g style="fill:#FFFFFF; fill-opacity:1.0000; stroke:none;">
<circle cx="170.6192" cy="28.6429" r="0.5000" /> 
</g>
<g style="fill:#FFFFFF; fill-opacity:1.0000; stroke:none;">
<circle cx="168.2035" cy="27.8580" r="0.5000" /> 
</g>
<g style="fill:#FFFFFF; fill-opacity:1.0000; stroke:none;">
<circle cx="131.8663" cy="172.9976" r="0.5000" /> 
</g>
<g style="fill:#FFFFFF; fill-opacity:1.0000; stroke:none;">
<circle cx="129.4506" cy="172.2127" r="0.5000" /> 
</g>
<g style="fill:#FFFFFF; fill-opacity:1.0000; stroke:none;">
<circle cx="127.0349" cy="171.4278" r="0.5000" /> 
</g>
<g style="fill:#FFFFFF; fill-opacity:1.0000; stroke:none;">
<circle cx="124.6192" cy="170.6429" r="0.5000" /> 
</g>
<g style="fill:#FFFFFF; fill-opacity:1.0000; stroke:none;">
<circle cx="122.2035" cy="169.8580" r="0.5000" /> 
</g>
<g style="fill:#FFFFFF; fill-opacity:1.0000; stroke:none;">
<circle cx="92.5208" cy="52.3180" r="0.5000" /> 
</g>
<g style="fill:#FFFFFF; fill-opacity:1.0000; stroke:none;">
<circle cx="91.0279" cy="54.3729" r="0.5000" /> 
</g>
<g style="fill:#FFFFFF; fill-opacity:1.0000; stroke:none;">
<circle cx="89.5349" cy="56.4278" r="0.5000" /> 
</g>
<g style="fill:#FFFFFF; fill-opacity:1.0000; stroke:none;">
<circle cx="88.0419" cy="58.4827" r="0.5000" /> 
</g>
<g style="fill:#FFFFFF; fill-opacity:1.0000; stroke:none;">
<circle cx="86.5489" cy="60.5376" r="0.5000" /> 
</g> 
</svg>
